<svg xmlns="http://www.w3.org/2000/svg" width="500" height="500" viewBox="0 0 500 500" version="1.1"><path d="M 350.453 64.326 C 334.974 70.290, 327.661 87.181, 334.358 101.500 C 337.363 107.923, 342.135 112.619, 348.827 115.736 C 353.260 117.801, 355.274 118.149, 360.827 117.810 C 368.590 117.337, 373.489 115.232, 378.782 110.096 C 384.815 104.241, 386.500 99.854, 386.500 90 C 386.500 82.538, 386.166 80.932, 383.763 76.845 C 380.683 71.605, 375.380 67.017, 369.628 64.616 C 365.142 62.744, 354.960 62.590, 350.453 64.326 M 418.453 64.275 C 406.471 69.092, 399.988 78.442, 400.010 90.876 C 400.035 105.577, 412.639 117.998, 427.500 117.968 C 438.334 117.946, 447.244 112.312, 452.125 102.397 C 454.988 96.582, 455.223 95.381, 454.793 88.760 C 454.533 84.745, 453.556 80.023, 452.608 78.197 C 450.239 73.632, 444.209 67.810, 439.467 65.509 C 434.690 63.190, 422.877 62.497, 418.453 64.275 M 281.565 65.959 C 275.564 68.377, 268.724 74.878, 265.761 80.980 C 262.814 87.049, 262.765 97.624, 265.653 104 C 270.516 114.732, 282.046 121.621, 293.643 120.723 C 314.052 119.143, 326.010 98.346, 316.942 80.200 C 311.968 70.247, 303.978 64.952, 293 64.335 C 288.175 64.064, 285.228 64.482, 281.565 65.959 M 31.561 68.250 C 30.924 72.150, 11.998 284.523, 11.999 287.750 L 12 290 37.500 290 C 61.124 290, 62.999 289.871, 62.986 288.250 C 62.956 284.348, 73.216 157.469, 73.593 157.083 C 73.817 156.854, 74.211 156.877, 74.468 157.135 C 74.725 157.392, 85.176 186.953, 97.692 222.826 L 120.448 288.049 135.845 287.774 L 151.241 287.500 173.417 224 C 185.614 189.075, 195.973 159.600, 196.437 158.500 C 197.203 156.685, 197.357 156.778, 198.094 159.500 C 198.541 161.150, 200.954 189.275, 203.457 222 C 205.960 254.725, 208.258 283.413, 208.565 285.750 L 209.123 290 234.655 290 L 260.188 290 259.584 285.250 C 259.253 282.637, 254.689 232.351, 249.444 173.503 C 244.198 114.655, 239.560 66.160, 239.136 65.736 C 238.713 65.313, 226.471 65.086, 211.933 65.233 L 185.500 65.500 160.986 129.181 C 147.503 164.205, 136.225 193.109, 135.923 193.410 C 135.622 193.712, 126.449 170.680, 115.539 142.229 C 104.629 113.778, 93.482 84.763, 90.768 77.750 L 85.833 65 58.962 65 L 32.091 65 31.561 68.250 M 348.840 73.887 C 342.512 77.900, 339.615 83.996, 340.199 92.069 C 340.674 98.645, 342.308 101.505, 348.408 106.442 C 351.843 109.222, 352.842 109.500, 359.416 109.500 C 367.630 109.500, 371.800 107.425, 376.050 101.222 C 379.493 96.198, 379.964 86.810, 377.059 81.116 C 372.042 71.281, 358.442 67.797, 348.840 73.887 M 417.264 73.558 C 409.187 78.399, 405.649 89.449, 409.347 98.282 C 411.245 102.816, 418.167 108.753, 422.503 109.567 C 435.750 112.052, 445.997 104.404, 446.825 91.414 C 447.174 85.931, 446.869 84.452, 444.588 80.560 C 439.112 71.216, 426.544 67.996, 417.264 73.558 M 415.500 147.059 C 405.409 149.432, 392.568 156.366, 387 162.448 L 384.500 165.180 384 157.840 L 383.500 150.500 359.500 150.500 L 335.500 150.500 335.500 220 L 335.500 289.500 359.500 289.500 L 383.500 289.500 384 246.420 L 384.500 203.339 387.532 198.438 C 395.558 185.460, 410.911 180.436, 423.136 186.787 C 428.980 189.823, 434.152 196.286, 435.967 202.823 C 436.587 205.054, 436.991 222.920, 436.994 248.250 L 437 290 461 290 L 485 290 485 240.210 C 485 185.985, 484.833 184.065, 479.217 173.575 C 470.868 157.981, 452.203 148.261, 427.500 146.642 C 423.100 146.354, 417.700 146.542, 415.500 147.059 M 267 220 L 267 290 291 290 L 315 290 315 220 L 315 150 291 150 L 267 150 267 220 M 265 347 L 265 402 276.500 402 L 288 402 288 388.764 L 288 375.528 301.263 388.764 L 314.527 402 329.002 402 L 343.478 402 326.739 385.239 C 317.533 376.021, 310 368.039, 310 367.501 C 310 366.963, 316.857 359.656, 325.238 351.262 L 340.476 336 326.003 336 L 311.530 336 299.765 347.734 L 288 359.469 288 325.734 L 288 292 276.500 292 L 265 292 265 347 M 30 324 L 30 336 25.500 336 L 21 336 21 345 L 21 354 25.500 354 L 30 354 30 368.818 C 30 386.673, 31.400 392.635, 36.877 398.113 C 42.413 403.648, 50.213 405.220, 60.841 402.941 C 69.275 401.132, 69.413 400.835, 66.398 391 C 64.965 386.325, 63.697 382.395, 63.580 382.267 C 63.463 382.139, 61.910 382.452, 60.130 382.963 C 57.463 383.728, 56.548 383.548, 54.946 381.946 C 53.218 380.218, 53 378.546, 53 367.046 L 53 354.091 59.750 353.796 L 66.500 353.500 66.500 345 L 66.500 336.500 59.750 336.204 L 53 335.909 53 323.954 L 53 312 41.500 312 L 30 312 30 324 M 108.500 334.891 C 103.983 336.038, 100.895 337.859, 96.750 341.821 L 93 345.406 93 340.703 L 93 336 81.500 336 L 70 336 70 369 L 70 402 81.500 402 L 93 402 93 383.460 C 93 366.717, 93.200 364.529, 95.059 360.885 C 98.377 354.381, 105.780 352.328, 114.021 355.625 C 116.255 356.519, 118.237 357.082, 118.425 356.875 C 119.362 355.849, 127 339.900, 127 338.971 C 127 336.295, 114.144 333.459, 108.500 334.891 M 149.267 335.054 C 139.318 337.018, 131.556 343.095, 126.890 352.572 C 117.950 370.732, 125.189 393.460, 142.325 401.029 C 152.550 405.545, 164.578 404.495, 172.579 398.388 L 177 395.013 177 398.507 L 177 402 188.500 402 L 200 402 200 369 L 200 336 188.500 336 L 177 336 177 338.959 L 177 341.917 172.250 338.974 C 169.637 337.354, 165.076 335.573, 162.114 335.015 C 156.067 333.876, 155.227 333.878, 149.267 335.054 M 232.500 335.358 C 225.328 337.208, 219.977 340.229, 214.580 345.474 C 197.398 362.173, 202.450 389.219, 224.807 400.226 C 230.954 403.252, 232.179 403.495, 240.979 403.438 C 248.395 403.389, 251.771 402.876, 256.250 401.116 C 259.413 399.873, 262.002 398.551, 262.004 398.178 C 262.006 397.805, 260.544 394.218, 258.754 390.208 C 255.971 383.972, 255.210 383.006, 253.500 383.541 C 248.971 384.958, 240.890 385.197, 238 384 C 233.320 382.061, 229.232 376.731, 228.456 371.554 C 227.906 367.887, 228.226 366.126, 230.138 362.314 C 231.437 359.723, 233.704 356.730, 235.176 355.662 C 238.831 353.009, 246.582 352.381, 251.306 354.355 L 255.055 355.921 258.711 348.534 C 262.989 339.887, 262.728 339.106, 254.738 336.667 C 247.246 334.379, 238.330 333.854, 232.500 335.358 M 364.972 335.359 C 357.875 336.888, 351.492 340.658, 346.103 346.504 C 332.060 361.739, 334.794 385.077, 352.037 397.146 C 366.750 407.444, 389.389 405.742, 401.719 393.411 C 404.624 390.507, 407 387.741, 407 387.265 C 407 386.790, 403.472 384.680, 399.160 382.578 L 391.320 378.756 387.102 381.811 C 382.047 385.473, 378.305 386.423, 372.415 385.540 C 366.565 384.662, 361 379.589, 361 375.132 L 361 372 384.632 372 L 408.263 372 407.778 364.750 C 406.710 348.778, 396.917 338.119, 380.526 335.089 C 373.490 333.789, 372.151 333.812, 364.972 335.359 M 449.157 335.450 C 446.768 336.217, 442.606 338.706, 439.907 340.982 L 435 345.119 435 340.560 L 435 336 424 336 L 413 336 413 369 L 413 402 424 402 L 435 402 435 384.649 C 435 366.048, 435.687 362.209, 439.811 357.762 C 443.703 353.566, 451.196 353.060, 459.197 356.453 C 460.574 357.038, 461.750 355.466, 465.447 348.106 C 467.951 343.120, 470 338.855, 470 338.629 C 470 338.402, 468.296 337.535, 466.213 336.702 C 460.351 334.356, 454.015 333.892, 449.157 335.450 M 367.315 350.464 C 364.422 351.722, 361 356.321, 361 358.950 C 361 359.627, 365.439 360, 373.500 360 C 381.561 360, 386 359.627, 386 358.950 C 386 356.224, 382.538 351.705, 379.466 350.421 C 375.238 348.655, 371.443 348.668, 367.315 350.464 M 153.898 356.270 C 147.281 360.690, 145.294 368.844, 148.979 376.456 C 151.462 381.585, 155.800 384.213, 161.937 384.306 C 168.278 384.401, 172.895 381.629, 175.807 375.977 C 178.320 371.099, 178.219 366.259, 175.496 360.992 C 171.969 354.172, 160.719 351.713, 153.898 356.270" stroke="none" fill="#050505" fill-rule="evenodd"/><path d="M 0 250.002 L 0 500.004 250.250 499.752 L 500.500 499.500 500.752 249.750 L 501.004 0 250.502 0 L 0 0 0 250.002 M 0.492 250.500 C 0.492 388, 0.608 444.101, 0.750 375.170 C 0.892 306.238, 0.892 193.738, 0.750 125.170 C 0.608 56.601, 0.492 113, 0.492 250.500 M 350.453 64.326 C 334.974 70.290, 327.661 87.181, 334.358 101.500 C 337.363 107.923, 342.135 112.619, 348.827 115.736 C 353.260 117.801, 355.274 118.149, 360.827 117.810 C 368.590 117.337, 373.489 115.232, 378.782 110.096 C 384.815 104.241, 386.500 99.854, 386.500 90 C 386.500 82.538, 386.166 80.932, 383.763 76.845 C 380.683 71.605, 375.380 67.017, 369.628 64.616 C 365.142 62.744, 354.960 62.590, 350.453 64.326 M 418.453 64.275 C 406.471 69.092, 399.988 78.442, 400.010 90.876 C 400.035 105.577, 412.639 117.998, 427.500 117.968 C 438.334 117.946, 447.244 112.312, 452.125 102.397 C 454.988 96.582, 455.223 95.381, 454.793 88.760 C 454.533 84.745, 453.556 80.023, 452.608 78.197 C 450.239 73.632, 444.209 67.810, 439.467 65.509 C 434.690 63.190, 422.877 62.497, 418.453 64.275 M 281.565 65.959 C 275.564 68.377, 268.724 74.878, 265.761 80.980 C 262.814 87.049, 262.765 97.624, 265.653 104 C 270.516 114.732, 282.046 121.621, 293.643 120.723 C 314.052 119.143, 326.010 98.346, 316.942 80.200 C 311.968 70.247, 303.978 64.952, 293 64.335 C 288.175 64.064, 285.228 64.482, 281.565 65.959 M 31.561 68.250 C 30.924 72.150, 11.998 284.523, 11.999 287.750 L 12 290 37.500 290 C 61.124 290, 62.999 289.871, 62.986 288.250 C 62.956 284.348, 73.216 157.469, 73.593 157.083 C 73.817 156.854, 74.211 156.877, 74.468 157.135 C 74.725 157.392, 85.176 186.953, 97.692 222.826 L 120.448 288.049 135.845 287.774 L 151.241 287.500 173.417 224 C 185.614 189.075, 195.973 159.600, 196.437 158.500 C 197.203 156.685, 197.357 156.778, 198.094 159.500 C 198.541 161.150, 200.954 189.275, 203.457 222 C 205.960 254.725, 208.258 283.413, 208.565 285.750 L 209.123 290 234.655 290 L 260.188 290 259.584 285.250 C 259.253 282.637, 254.689 232.351, 249.444 173.503 C 244.198 114.655, 239.560 66.160, 239.136 65.736 C 238.713 65.313, 226.471 65.086, 211.933 65.233 L 185.500 65.500 160.986 129.181 C 147.503 164.205, 136.225 193.109, 135.923 193.410 C 135.622 193.712, 126.449 170.680, 115.539 142.229 C 104.629 113.778, 93.482 84.763, 90.768 77.750 L 85.833 65 58.962 65 L 32.091 65 31.561 68.250 M 348.840 73.887 C 342.512 77.900, 339.615 83.996, 340.199 92.069 C 340.674 98.645, 342.308 101.505, 348.408 106.442 C 351.843 109.222, 352.842 109.500, 359.416 109.500 C 367.630 109.500, 371.800 107.425, 376.050 101.222 C 379.493 96.198, 379.964 86.810, 377.059 81.116 C 372.042 71.281, 358.442 67.797, 348.840 73.887 M 417.264 73.558 C 409.187 78.399, 405.649 89.449, 409.347 98.282 C 411.245 102.816, 418.167 108.753, 422.503 109.567 C 435.750 112.052, 445.997 104.404, 446.825 91.414 C 447.174 85.931, 446.869 84.452, 444.588 80.560 C 439.112 71.216, 426.544 67.996, 417.264 73.558 M 415.500 147.059 C 405.409 149.432, 392.568 156.366, 387 162.448 L 384.500 165.180 384 157.840 L 383.500 150.500 359.500 150.500 L 335.500 150.500 335.500 220 L 335.500 289.500 359.500 289.500 L 383.500 289.500 384 246.420 L 384.500 203.339 387.532 198.438 C 395.558 185.460, 410.911 180.436, 423.136 186.787 C 428.980 189.823, 434.152 196.286, 435.967 202.823 C 436.587 205.054, 436.991 222.920, 436.994 248.250 L 437 290 461 290 L 485 290 485 240.210 C 485 185.985, 484.833 184.065, 479.217 173.575 C 470.868 157.981, 452.203 148.261, 427.500 146.642 C 423.100 146.354, 417.700 146.542, 415.500 147.059 M 267 220 L 267 290 291 290 L 315 290 315 220 L 315 150 291 150 L 267 150 267 220 M 265 347 L 265 402 276.500 402 L 288 402 288 388.764 L 288 375.528 301.263 388.764 L 314.527 402 329.002 402 L 343.478 402 326.739 385.239 C 317.533 376.021, 310 368.039, 310 367.501 C 310 366.963, 316.857 359.656, 325.238 351.262 L 340.476 336 326.003 336 L 311.530 336 299.765 347.734 L 288 359.469 288 325.734 L 288 292 276.500 292 L 265 292 265 347 M 30 324 L 30 336 25.500 336 L 21 336 21 345 L 21 354 25.500 354 L 30 354 30 368.818 C 30 386.673, 31.400 392.635, 36.877 398.113 C 42.413 403.648, 50.213 405.220, 60.841 402.941 C 69.275 401.132, 69.413 400.835, 66.398 391 C 64.965 386.325, 63.697 382.395, 63.580 382.267 C 63.463 382.139, 61.910 382.452, 60.130 382.963 C 57.463 383.728, 56.548 383.548, 54.946 381.946 C 53.218 380.218, 53 378.546, 53 367.046 L 53 354.091 59.750 353.796 L 66.500 353.500 66.500 345 L 66.500 336.500 59.750 336.204 L 53 335.909 53 323.954 L 53 312 41.500 312 L 30 312 30 324 M 108.500 334.891 C 103.983 336.038, 100.895 337.859, 96.750 341.821 L 93 345.406 93 340.703 L 93 336 81.500 336 L 70 336 70 369 L 70 402 81.500 402 L 93 402 93 383.460 C 93 366.717, 93.200 364.529, 95.059 360.885 C 98.377 354.381, 105.780 352.328, 114.021 355.625 C 116.255 356.519, 118.237 357.082, 118.425 356.875 C 119.362 355.849, 127 339.900, 127 338.971 C 127 336.295, 114.144 333.459, 108.500 334.891 M 149.267 335.054 C 139.318 337.018, 131.556 343.095, 126.890 352.572 C 117.950 370.732, 125.189 393.460, 142.325 401.029 C 152.550 405.545, 164.578 404.495, 172.579 398.388 L 177 395.013 177 398.507 L 177 402 188.500 402 L 200 402 200 369 L 200 336 188.500 336 L 177 336 177 338.959 L 177 341.917 172.250 338.974 C 169.637 337.354, 165.076 335.573, 162.114 335.015 C 156.067 333.876, 155.227 333.878, 149.267 335.054 M 232.500 335.358 C 225.328 337.208, 219.977 340.229, 214.580 345.474 C 197.398 362.173, 202.450 389.219, 224.807 400.226 C 230.954 403.252, 232.179 403.495, 240.979 403.438 C 248.395 403.389, 251.771 402.876, 256.250 401.116 C 259.413 399.873, 262.002 398.551, 262.004 398.178 C 262.006 397.805, 260.544 394.218, 258.754 390.208 C 255.971 383.972, 255.210 383.006, 253.500 383.541 C 248.971 384.958, 240.890 385.197, 238 384 C 233.320 382.061, 229.232 376.731, 228.456 371.554 C 227.906 367.887, 228.226 366.126, 230.138 362.314 C 231.437 359.723, 233.704 356.730, 235.176 355.662 C 238.831 353.009, 246.582 352.381, 251.306 354.355 L 255.055 355.921 258.711 348.534 C 262.989 339.887, 262.728 339.106, 254.738 336.667 C 247.246 334.379, 238.330 333.854, 232.500 335.358 M 364.972 335.359 C 357.875 336.888, 351.492 340.658, 346.103 346.504 C 332.060 361.739, 334.794 385.077, 352.037 397.146 C 366.750 407.444, 389.389 405.742, 401.719 393.411 C 404.624 390.507, 407 387.741, 407 387.265 C 407 386.790, 403.472 384.680, 399.160 382.578 L 391.320 378.756 387.102 381.811 C 382.047 385.473, 378.305 386.423, 372.415 385.540 C 366.565 384.662, 361 379.589, 361 375.132 L 361 372 384.632 372 L 408.263 372 407.778 364.750 C 406.710 348.778, 396.917 338.119, 380.526 335.089 C 373.490 333.789, 372.151 333.812, 364.972 335.359 M 449.157 335.450 C 446.768 336.217, 442.606 338.706, 439.907 340.982 L 435 345.119 435 340.560 L 435 336 424 336 L 413 336 413 369 L 413 402 424 402 L 435 402 435 384.649 C 435 366.048, 435.687 362.209, 439.811 357.762 C 443.703 353.566, 451.196 353.060, 459.197 356.453 C 460.574 357.038, 461.750 355.466, 465.447 348.106 C 467.951 343.120, 470 338.855, 470 338.629 C 470 338.402, 468.296 337.535, 466.213 336.702 C 460.351 334.356, 454.015 333.892, 449.157 335.450 M 367.315 350.464 C 364.422 351.722, 361 356.321, 361 358.950 C 361 359.627, 365.439 360, 373.500 360 C 381.561 360, 386 359.627, 386 358.950 C 386 356.224, 382.538 351.705, 379.466 350.421 C 375.238 348.655, 371.443 348.668, 367.315 350.464 M 153.898 356.270 C 147.281 360.690, 145.294 368.844, 148.979 376.456 C 151.462 381.585, 155.800 384.213, 161.937 384.306 C 168.278 384.401, 172.895 381.629, 175.807 375.977 C 178.320 371.099, 178.219 366.259, 175.496 360.992 C 171.969 354.172, 160.719 351.713, 153.898 356.270" stroke="none" fill="#fbfbfb" fill-rule="evenodd"/></svg>